<?xml version="1.0" standalone="no"?>
<!DOCTYPE svg PUBLIC "-//W3C//DTD SVG 20010904//EN"
 "http://www.w3.org/TR/2001/REC-SVG-20010904/DTD/svg10.dtd">
<svg version="1.0" xmlns="http://www.w3.org/2000/svg"
 width="500.000000pt" height="500.000000pt" viewBox="0 0 500.000000 500.000000"
 preserveAspectRatio="xMidYMid meet">
<metadata>
Created by potrace 1.14, written by Peter Selinger 2001-2017
</metadata>
<g transform="translate(0.000000,500.000000) scale(0.100000,-0.100000)"
fill="#000000" stroke="none">
<path d="M1648 4705 c-3 -3 -14 -7 -24 -9 -19 -4 -94 -23 -124 -31 -37 -9
-133 -53 -151 -68 -10 -9 -19 -15 -19 -12 0 9 -83 -48 -107 -72 -12 -13 -25
-23 -28 -23 -4 0 -27 -23 -53 -52 -26 -29 -55 -60 -64 -70 -10 -10 -19 -21
-20 -25 -4 -18 -34 -63 -40 -63 -5 0 -8 -4 -8 -10 0 -5 -13 -37 -30 -71 -16
-34 -27 -66 -24 -70 3 -5 0 -9 -6 -9 -6 0 -10 -6 -9 -12 1 -7 -1 -20 -4 -28
-4 -8 -8 -24 -10 -35 -1 -11 -5 -24 -8 -30 -3 -5 -5 -25 -4 -42 0 -18 -2 -33
-6 -33 -15 0 -1 -233 15 -259 4 -5 0 -12 -6 -14 -10 -4 -10 -6 0 -6 6 -1 12
-12 12 -25 0 -14 5 -28 10 -31 6 -4 8 -11 4 -16 -3 -5 0 -16 6 -24 7 -8 10
-15 7 -15 -3 0 10 -33 30 -72 19 -40 34 -74 32 -75 -2 -1 5 -9 16 -17 11 -8
20 -19 20 -24 0 -6 8 -19 17 -29 10 -10 32 -36 50 -57 27 -33 69 -70 164 -145
6 -5 37 -24 68 -41 52 -30 70 -54 46 -62 -6 -2 -12 -19 -14 -39 -2 -20 -9 -45
-15 -57 -6 -12 -10 -25 -10 -29 1 -4 -3 -21 -9 -36 -7 -16 -10 -33 -6 -38 3
-5 1 -9 -5 -9 -6 0 -7 -7 -4 -17 5 -12 3 -14 -7 -8 -9 5 -11 4 -6 -3 4 -6 0
-24 -8 -40 -8 -16 -13 -32 -10 -35 3 -3 2 -12 -2 -19 -9 -14 -12 -24 -16 -53
-2 -11 -6 -22 -10 -25 -4 -3 -8 -20 -10 -38 -1 -18 -5 -32 -8 -32 -4 0 -12
-24 -19 -52 -7 -29 -22 -80 -33 -113 -12 -33 -21 -67 -21 -75 0 -8 -3 -19 -7
-25 -6 -9 -21 -53 -26 -80 -1 -5 -3 -13 -4 -17 -1 -5 -4 -12 -5 -18 -1 -5 -4
-12 -5 -15 -3 -6 -5 -12 -15 -42 -4 -13 -11 -20 -17 -17 -13 8 -193 5 -195 -3
-2 -5 -20 -7 -40 -7 -21 1 -42 -2 -48 -6 -5 -4 -20 -6 -32 -5 -12 1 -20 -2
-17 -7 3 -4 -6 -8 -20 -8 -14 0 -28 -5 -31 -10 -4 -6 -10 -8 -14 -5 -5 2 -17
-2 -27 -10 -10 -8 -27 -15 -36 -15 -10 0 -18 -5 -18 -11 0 -5 -4 -8 -9 -4 -5
3 -16 -2 -24 -10 -9 -8 -20 -15 -26 -15 -6 0 -11 -4 -11 -10 0 -5 -6 -10 -13
-10 -7 0 -28 -12 -46 -27 -68 -56 -141 -123 -135 -123 4 0 -5 -12 -20 -26 -14
-15 -36 -43 -48 -63 -12 -20 -28 -42 -35 -49 -7 -8 -11 -17 -8 -22 3 -5 2 -10
-2 -12 -10 -4 -45 -77 -50 -103 -2 -11 -8 -22 -13 -23 -6 -2 -7 -8 -4 -13 3
-6 1 -15 -4 -22 -5 -7 -10 -19 -10 -27 0 -8 -6 -44 -12 -80 -12 -69 -15 -191
-6 -237 3 -16 8 -41 11 -58 9 -53 13 -69 29 -115 9 -25 18 -49 19 -55 1 -5 4
-12 7 -15 8 -8 34 -64 32 -71 -1 -4 10 -19 23 -33 14 -15 25 -30 25 -34 1 -10
42 -63 62 -81 10 -9 18 -21 18 -28 0 -7 5 -13 11 -13 6 0 26 -15 44 -32 35
-34 37 -36 95 -79 29 -21 123 -71 140 -74 3 0 16 -7 30 -15 14 -7 25 -12 25
-11 0 2 25 -5 55 -17 8 -3 21 -4 28 -3 6 1 12 -4 12 -11 0 -9 3 -9 10 2 5 8
10 10 10 4 0 -6 14 -10 30 -9 17 1 33 -2 36 -6 2 -4 62 -6 132 -3 164 5 172 6
165 17 -3 6 8 8 26 5 17 -2 31 -1 31 4 0 4 12 8 26 8 16 0 23 4 18 12 -4 7 -3
8 4 4 6 -4 19 -2 29 3 10 6 36 18 58 27 22 10 48 24 59 33 10 9 21 16 25 15
13 -2 61 33 54 39 -3 4 1 7 9 7 15 0 132 109 168 156 26 34 77 118 91 152 8
17 17 32 20 32 3 0 6 6 6 13 1 14 22 74 34 99 5 10 6 24 3 33 -3 8 -2 15 3 15
5 0 10 6 10 13 2 38 15 164 19 176 3 9 13 11 29 7 16 -4 25 -2 25 5 0 7 3 9 7
6 3 -4 13 -1 21 6 13 10 14 9 7 -3 -7 -13 -6 -13 7 -2 9 7 27 14 40 16 13 1
28 5 33 8 8 5 34 13 110 34 6 2 23 6 40 9 16 3 34 10 40 15 6 5 24 11 40 14
17 2 31 5 33 6 1 2 7 4 12 5 6 1 13 4 18 5 4 1 11 2 15 1 4 -1 17 4 28 10 11
6 28 12 37 14 9 3 35 9 57 15 22 6 48 12 57 15 9 2 26 9 37 15 12 6 21 8 21 6
0 -3 18 1 41 9 22 8 43 14 47 13 4 -1 21 4 37 11 17 7 35 14 40 15 6 1 19 5
30 9 11 3 31 8 45 11 14 2 39 10 55 16 17 7 37 14 45 16 28 4 55 12 83 23 15
6 27 8 27 5 0 -4 6 -2 13 3 12 10 45 20 97 30 13 2 30 9 36 14 7 5 16 9 20 8
5 -1 11 0 14 1 6 2 18 5 75 19 32 8 43 7 57 -6 10 -9 18 -23 18 -31 0 -9 3
-13 6 -9 6 6 31 -12 68 -49 27 -27 126 -96 126 -88 0 4 17 -6 37 -22 20 -15
33 -22 29 -16 -4 7 -2 12 3 12 6 0 11 -4 11 -9 0 -5 14 -12 30 -16 17 -4 30
-10 30 -14 0 -4 6 -8 13 -8 6 -1 37 -6 67 -13 30 -7 66 -13 80 -14 14 -1 32
-6 39 -11 10 -6 12 -4 6 6 -7 11 -6 12 6 2 14 -11 179 -14 179 -2 0 4 8 6 18
6 30 -2 122 15 122 21 0 4 10 8 23 9 12 0 40 9 62 19 22 10 43 18 46 18 13 2
153 89 175 110 41 38 52 45 59 38 4 -4 5 -2 3 4 -2 6 12 26 29 43 18 17 30 31
27 31 -3 0 5 10 18 23 27 26 78 102 78 117 0 5 4 10 10 10 5 0 9 3 8 8 -1 4 4
21 11 37 7 17 12 32 11 34 -1 2 3 7 9 10 6 4 13 18 15 31 2 14 5 25 6 25 2 0
7 20 23 93 11 44 11 62 3 62 -8 0 -7 3 1 8 12 7 21 170 11 188 -3 5 -4 17 -3
27 2 9 -1 17 -6 17 -4 0 -6 7 -3 15 3 8 2 20 -2 27 -5 7 -7 23 -5 36 1 12 -1
22 -6 22 -5 0 -10 12 -11 27 -1 15 -9 37 -17 50 -9 13 -13 23 -10 23 2 0 -6
20 -20 44 -13 24 -21 46 -18 50 4 3 1 6 -5 6 -6 0 -13 8 -16 18 -3 9 -17 29
-31 45 -14 15 -23 27 -20 27 4 0 0 6 -7 14 -8 8 -25 27 -39 42 -51 61 -197
174 -224 174 -8 0 -15 4 -15 9 0 10 -39 27 -52 23 -5 -1 -8 2 -8 8 0 6 -3 10
-7 9 -15 -2 -53 13 -53 21 0 5 -9 6 -20 3 -11 -3 -20 -1 -20 5 0 6 -8 11 -17
11 -28 0 -107 12 -123 18 -27 10 -150 9 -150 -2 0 -7 -3 -7 -8 0 -6 9 -27 11
-42 5 -6 -2 -32 -7 -84 -15 -53 -8 -134 -33 -168 -51 -16 -8 -28 -12 -28 -7 0
4 -4 2 -9 -6 -13 -20 -55 -16 -83 8 -27 24 -102 68 -130 78 -10 3 -18 9 -18
14 0 5 -4 9 -10 9 -5 0 -19 8 -29 17 -11 9 -28 18 -38 19 -10 2 -19 8 -21 13
-2 6 -10 11 -18 11 -8 0 -14 5 -14 10 0 6 -7 10 -15 10 -8 0 -15 5 -15 10 0 6
-9 10 -21 10 -11 0 -18 4 -15 9 3 5 -5 12 -19 15 -14 4 -25 11 -25 17 0 6 -5
7 -10 4 -6 -3 -10 -1 -10 4 0 6 -7 11 -15 11 -7 0 -18 7 -23 16 -5 9 -12 16
-15 16 -19 0 -46 11 -42 17 2 4 -12 13 -31 20 -18 7 -34 17 -34 22 0 5 -6 9
-13 9 -7 0 -23 9 -34 19 -12 11 -23 18 -26 15 -2 -2 -10 2 -17 11 -7 8 -16 15
-21 15 -17 0 -98 57 -91 64 4 4 3 7 -3 6 -21 -5 -36 0 -30 10 4 6 -1 7 -11 3
-13 -5 -15 -3 -9 8 4 8 5 11 0 7 -9 -9 -65 19 -65 32 0 6 -7 10 -15 10 -22 0
-59 36 -46 44 5 4 8 15 6 26 -2 11 0 22 5 25 4 3 7 23 6 44 0 22 2 37 6 35 11
-7 7 188 -4 238 -5 24 -11 54 -13 68 -3 28 -7 40 -43 130 -15 36 -32 71 -39
78 -7 8 -11 17 -8 22 3 4 -2 11 -11 14 -9 4 -14 9 -11 12 3 4 1 12 -6 19 -7 6
-21 25 -32 40 -33 47 -175 185 -191 185 -3 0 -26 14 -51 32 -26 17 -52 31 -60
31 -7 0 -13 4 -13 9 0 4 -5 8 -10 8 -6 0 -29 9 -51 19 -36 18 -114 37 -131 33
-5 -1 -8 2 -8 6 0 5 -13 7 -30 6 -16 -1 -30 1 -30 6 0 11 -209 10 -215 -1 -4
-5 -11 -9 -16 -9 -6 0 -7 5 -4 10 7 11 2 14 -7 5z m852 -1390 c7 -9 15 -13 17
-11 5 5 16 -3 50 -34 9 -8 18 -13 21 -11 4 4 36 -16 58 -37 7 -7 15 -12 16
-10 2 1 17 -7 33 -17 54 -33 70 -42 80 -46 6 -1 19 -11 29 -21 11 -10 26 -18
33 -18 7 0 13 -4 13 -9 0 -5 16 -15 34 -22 19 -7 33 -16 30 -21 -3 -4 4 -8 15
-8 12 0 21 -4 21 -10 0 -5 7 -10 15 -10 8 0 15 -4 15 -10 0 -5 7 -10 15 -10 8
0 15 -4 15 -8 0 -4 12 -13 28 -19 34 -15 65 -35 74 -48 4 -5 8 -6 8 -1 0 5 8
0 18 -11 9 -11 24 -18 32 -15 8 3 12 1 8 -3 -4 -4 15 -19 42 -33 28 -14 50
-29 50 -34 0 -4 7 -8 15 -8 9 0 18 -6 21 -14 3 -8 13 -12 26 -8 14 3 19 1 14
-6 -4 -7 -2 -12 4 -12 7 0 -2 -18 -19 -39 -17 -21 -31 -44 -31 -50 0 -6 -4
-11 -8 -11 -10 0 -37 -50 -34 -62 1 -5 -3 -8 -8 -8 -6 0 -10 -6 -10 -14 0 -8
-7 -21 -15 -30 -9 -8 -16 -19 -15 -23 0 -15 -23 -78 -34 -92 -9 -12 -8 -13 3
-6 11 6 12 5 5 -6 -9 -15 -13 -29 -19 -74 -2 -16 -4 -30 -5 -30 -4 0 -9 -48
-11 -105 -1 -75 9 -178 22 -201 4 -9 6 -19 2 -22 -3 -3 -3 -12 -1 -19 3 -7 6
-16 7 -21 0 -4 7 -23 15 -42 14 -32 14 -35 -3 -35 -10 0 -43 -9 -74 -19 -32
-11 -57 -17 -57 -14 0 3 -7 0 -15 -7 -8 -7 -15 -9 -15 -5 0 4 -7 2 -15 -5 -8
-7 -15 -10 -15 -7 0 4 -19 -1 -42 -9 -37 -14 -63 -20 -103 -28 -5 -1 -15 -4
-20 -8 -10 -6 -117 -36 -159 -44 -10 -2 -23 -7 -30 -12 -6 -5 -29 -13 -51 -17
-22 -3 -64 -15 -92 -25 -29 -10 -53 -16 -53 -13 0 3 -6 0 -13 -6 -8 -6 -30
-12 -50 -13 -20 -2 -37 -6 -37 -10 0 -7 -26 -17 -67 -24 -16 -3 -64 -17 -108
-31 -44 -14 -90 -27 -103 -28 -13 -2 -29 -9 -37 -15 -8 -7 -15 -10 -15 -6 0 3
-15 0 -34 -8 -19 -8 -37 -12 -40 -9 -3 3 -12 0 -20 -6 -8 -7 -20 -10 -26 -6
-5 3 -13 -1 -16 -9 -9 -24 -33 -19 -40 9 -3 14 -11 25 -17 25 -6 0 -8 3 -4 6
7 8 -51 126 -67 136 -6 4 -7 8 -3 8 4 0 3 6 -3 13 -5 6 -29 36 -51 65 -22 28
-45 52 -50 52 -6 0 -7 5 -4 10 3 6 3 10 -2 10 -4 0 -22 13 -39 28 -71 61 -79
67 -146 105 -13 6 -25 14 -28 17 -3 3 -15 10 -27 15 l-22 10 20 55 c10 30 17
61 14 67 -2 7 0 13 5 13 6 0 10 8 10 18 0 10 6 24 13 31 10 11 9 12 -3 6 -12
-7 -13 -6 -3 6 13 17 37 98 34 117 -1 6 3 12 8 12 5 0 13 20 17 45 3 25 10 48
15 50 4 3 6 14 4 25 -2 11 0 20 4 20 9 0 23 59 18 71 -1 3 3 12 9 20 6 8 15
28 19 44 5 17 9 32 10 35 1 3 5 21 9 40 5 19 12 40 16 45 7 10 19 60 23 98 1
9 4 17 8 17 4 0 10 12 13 28 4 15 11 43 17 63 l9 36 87 -2 c49 -1 93 1 98 4 6
3 26 6 45 7 19 0 42 3 50 7 29 11 75 21 97 21 12 0 20 4 17 8 -3 4 -1 8 5 8 5
0 22 5 38 12 15 6 31 11 36 10 4 -1 7 2 7 8 0 5 9 10 20 10 11 0 20 4 20 9 0
5 8 12 18 15 34 13 72 37 72 47 0 5 3 8 8 8 19 -3 33 2 27 10 -3 6 5 15 17 22
25 13 128 119 128 131 0 14 27 9 40 -7z"/>
</g>
</svg>
